<svg xmlns="http://www.w3.org/2000/svg" width="127" height="122" fill="none" xmlns:v="https://vecta.io/nano"><style><![CDATA[.B{fill:#e7c59b}.C{fill:#191919}.D{fill:#eb5976}.E{fill-rule:evenodd}]]></style><g class="E"><path d="M91.053 12.935a1.184 1.184 0 0 1-.001-.399c.051-.327.207-.621.261-.947.111-.674-.095-1.113-.42-1.699-.358-.642-.876-1.176-1.428-1.65-.483-.416-1.065-.812-1.315-1.426-.217-.532-.298-1.057-.64-1.54-.378-.534-.892-.882-1.458-1.185-1-.537-2.077-.986-3.208-1.14-.771-.105-1.575-.016-2.324.19s-1.526.293-2.262.558c-.844.303-1.702.877-2.194 1.643-2.423 3.766-1.1 7.187-.843 7.904.29.813.342 1.456.25 2.323-.092.875-.208 2.007.703 2.49.246.132.516.214.765.341.365.186.674.465 1.035.658.676.362 1.556.409 2.25.065.635-.314 1.128-.975 1.911-.849 1.361.222 3.177.57 4.529-.045.241-.037.482-.088.694-.146.706-.189 1.11-.578 1.708-.939.447-.265.957-.099 1.405-.33 1.02-.53 1.256-1.928.94-2.922-.115-.36-.302-.623-.358-.955z" fill="#222"/><path d="m74.748 119.447.01-.04c.29-1.192.32-2.434.424-3.653.052-.598.462-1.662-.089-2.122-.177-.149-.409-.217-.638-.236-1.327-.108-1.763.984-1.837 2.127-.063.961.007 1.923.004 2.885-.001.78-.046 1.728.988 1.847.549.064.998-.308 1.138-.808z" class="B"/><path d="M74.728 118.254c-.383-.063-.852.105-1.24.149l-3.803.622c-.72.115-1.82.583-1.83 1.527-.013.968 1.368.876 2.013.901 1.483.058 2.955.057 4.433-.091 1.204-.119 1.113-.864 1.166-1.556.028-.374-.017-.776-.18-1.117-.132-.278-.33-.397-.559-.435z" class="C"/><path d="m94.157 119.447.011-.04c.29-1.192.32-2.434.424-3.653.052-.598.461-1.662-.09-2.122-.176-.149-3.69-.217-3.919-.236-1.326-.108 1.519.984 1.445 2.127-.063.961.007 1.923.005 2.885-.003.78-.047 1.728.987 1.847.549.064.997-.308 1.137-.808z" class="B"/><path d="M94.13 118.254c-.383-.063-.865.038-1.24.149-.838.247-1.615.838-1.98 1.161-.791.698-.916.996-.84 1.46.11.673.431.875 1.076.901 1.482.058 1.99-.033 2.556-.091.438-.045.883-.199 1.049-.646.226-.605.22-1.911-.062-2.499-.133-.278-.33-.398-.558-.435z" class="C"/></g><mask id="A" maskUnits="userSpaceOnUse" x="63" y="50" width="39" height="67" mask-type="alpha"><path d="M101.168 103.295l-2.813-23.504c-.235-2.672-1.846-18.866-2.407-22.089S93.98 50.44 93.98 50.44l-12.423 1.838.013.755-8.973-2.956s-.929 2.555-1.744 7.154c-.638 3.597-2.995 14.542-4.22 27.12-.678 6.973-2.187 16.35-2.343 19.966s-.86 8.16.312 9.071 7.408 2.846 9.986 2.924 5.718-.439 5.953-1.225.456-19.338 1.127-23.583l.978-6.405.973 12.93c.438 4.48.438 15.643 1.375 16.508s5.704 1.1 8.204.943 7.579-1.667 8.282-2.092.156-5.926-.312-10.093z" fill="#fff"/></mask><g mask="url(#A)" class="E"><path d="M72.595 50.077s-.928 2.555-1.745 7.154c-.637 3.597-2.994 14.542-4.219 27.12-.678 6.974-2.187 16.35-2.344 19.966s-.86 8.16.313 9.071 7.408 2.846 9.987 2.924 5.717-.439 5.952-1.225.456-19.338 1.127-23.583l3.326-22.089-.468-15.408-11.93-3.93z" fill="#666"/><path d="M81.946 74.76l1.672 23.269c.438 4.48.438 15.643 1.375 16.508s5.704 1.1 8.204.943 7.579-1.667 8.282-2.092.156-5.926-.312-10.093l-2.813-23.504c-.234-2.672-1.846-18.866-2.407-22.089s-1.968-7.262-1.968-7.262l-12.423 1.838.39 22.482z" fill="#666"/><path d="M65.968 115.547l-.467-.043 2.697-26.465c1.044-8.634 6.99-39.692 7.05-40.004l.46.089c-.06.312-6.003 31.354-7.046 39.972s-2.678 26.274-2.694 26.451zm4.671 1.848l-.465-.058 4.054-32.192c1.043-7.808 4.028-34.296 4.058-34.562l.466.053-4.06 34.571-4.053 32.188zm6.557 2.485l-.468-.031a1473.33 1473.33 0 0 0 1.318-24.072c.586-12.711 3.642-44.149 3.673-44.465l.467.046c-.031.316-3.086 31.742-3.672 44.44a1487.248 1487.248 0 0 1-1.318 24.082zm10.509.715c-.024-.239-2.398-24.075-2.398-33.178l-.547-37.335.468-.01.547 37.345c0 9.08 2.372 32.892 2.396 33.131l-.466.047zm5.082-.302c-.019-.115-1.866-11.64-2.792-23.19s-1.404-46.31-1.41-46.66l.47-.006c.004.35.483 35.097 1.407 46.63s2.77 23.036 2.787 23.151l-.462.075zm4.943-2.902l-3.75-41.044c-.695-11.41-2.955-25.323-2.977-25.462l.462-.077c.023.14 2.286 14.075 2.982 25.51.695 11.418 3.72 40.729 3.75 41.024l-.466.049z" fill="#fff"/></g><g class="E"><g class="B"><path d="M56.93 25.344s-2.152.134-1.78.922l2.187 4.453 2.415-1.906-2.822-3.47z"/><path d="M56.928 25.344s-1.23-1.661-1.686-1.856c-1.054-.452-2.998-.04-2.988.628.01.597 2.894 2.15 2.894 2.15l1.413-.312.367-.61zm29.903-5.724c1.036 1.37-1.57 3.042-2.62 3.266-.814.178-1.865-.118-2.594-.452-.505-.223-1.79-1.206-1.141-1.916a.373.373 0 0 1 .47-.05l-.168-.715a15.31 15.31 0 0 1-.258-1.466c0-.004-.005-.009-.001-.02l-.013-.111-.013-.108a.122.122 0 0 0-.008-.042c-.673-.083-1.312-.334-1.835-.81-1.206-1.07-1.612-2.312-1.967-3.842-.225-.944-.368-1.874-.35-2.807l.004-.256c.001-.113.011-.233.022-.347l.017-.143a6.53 6.53 0 0 1 .203-1.093c.251-1.196.843-2.176 2.077-2.854 1.251-.683 3.306-1 4.673-.43.932.39 1.827 1.256 2.237 2.181l.593 1.37s.754-.163.982.382c.547 1.313-1.097 3.595-1.097 3.595l.314 3.458.335 2.988.019.135c.048.006.088.041.119.086z"/></g><path d="M82.444 19.137a4.645 4.645 0 0 1-1.667.617 15.434 15.434 0 0 1-.26-1.468.128.128 0 0 1 .025-.01c-.01-.001-.017-.008-.027-.009l-.014-.113c.002-.033-.006-.072-.01-.106.253-.11.458-.059.774-.095a2.828 2.828 0 0 0 1.46-.576c.321-.26.965-.928 1.13-.148.16.752-.864 1.578-1.411 1.908z" fill="#d3ae7f"/><path d="M86.67 19.248l-5.884.551s-3.389.25-6.358 1.705-2.685 19.813-2.763 21.267-1.138 4.359.666 8.691c.537 1.29 4.757 1.738 10.45 1.7 7.513-.048 10.713-.36 11.427-1.12 2.11-2.245.854-11.45.541-13.455s1.957-14.177.918-15.718c-1.113-1.65-8.998-3.62-8.998-3.62z" class="D"/><path d="M107.096 59.98s.094 1.435 1.106 2.812c.957 1.3 2.52.505 1.993-1.415-.232-.842-1.237-2.137-1.237-2.137l-1.734-4.65a714.4 714.4 0 0 0-2.593 1.654l2.465 3.735z" class="B"/><path d="M95.67 22.869s1.9 1.975 3.62 5.905l5.156 12.263c.859 2.123 5.027 12.007 5.106 12.95s-1.563 2.201-2.5 2.673-2.758 1.1-4.036.865-6.51-14.994-7.071-16.33-2.594-3.066-3.063-3.538-2.187-2.606-1.484-4.605 1.875-5.929 1.875-5.929l2.397-4.254z" class="D"/><path d="M80.791 19.799s.849 9.074 1.525 9.103 4.359-9.654 4.359-9.654-2.16-.575-2.306-.546-3.578 1.097-3.578 1.097z" class="B"/><g class="D"><path d="M74.43 21.504s-1.866 1.12-3.144 2.711-7.842 14.15-7.842 14.445.996 5.025 1.465 5.578 1.934.74 2.52.558 7.677-8.023 7.677-8.023l.234-15.051-.91-.218z"/><path d="M66.845 37.716L60.633 27.34c-.882-.767-5.392 2.849-5.39 4.233 0 .67 6.445 14.05 8.691 14.574 1.766.41 3.497-1.35 3.497-1.35l-.586-7.08z"/></g><path d="M87.77 8.322a.189.189 0 0 0-.05.023c-.312-.738-.687-1.377-1.294-1.905-.734-.641-1.687-1.601-2.65-1.838-1.3-.315-3.143-.374-4.428.307-.383-.028-.825.231-1.127.405-.713.407-1.416.951-1.857 1.67-.48.777-.538 1.907-.422 2.788.021.168.165.328.35.3.532-.063 1.202-.732 1.508-1.175.166-.244.282-.532.354-.826.093-.016.186-.032.277-.072.346-.153.681-.386.97-.624.22-.182.438-.497.532-.825.15.178.325.336.507.454.39.25.662.306 1.1.378.647.103 1.038.571 1.667.752.542.154.777.217 1.202.63.405.396.743.712 1.318.801.789.122 1.967-.163 2.274-.985.05-.146-.066-.321-.23-.258z" fill="#222"/><g class="C"><path d="m125.399 73.322-19.009 8.355a1.11 1.11 0 0 1-1.466-.577l-1.622-3.736c-2.149-4.948.096-10.713 5.015-12.875l3.236-1.423c4.919-2.163 10.649.097 12.798 5.045l1.622 3.736a1.123 1.123 0 0 1-.574 1.475z"/><path d="M111.082 61.26a.486.486 0 0 0-.196.041l-3.55 1.56a.492.492 0 0 0-.252.647l.594 1.367a.486.486 0 0 0 .643.253l3.55-1.56a.493.493 0 0 0 .252-.647l-.594-1.367a.484.484 0 0 0-.447-.294zm-2.956 4.853a1.42 1.42 0 0 1-1.307-.86l-.594-1.367a1.44 1.44 0 0 1 .736-1.89l3.55-1.56c.349-.154.737-.16 1.091-.02.355.14.634.41.786.76l.594 1.367a1.44 1.44 0 0 1-.736 1.889l-3.55 1.56c-.183.081-.376.121-.57.121z"/></g><path d="M24.985 4.632c.811-1.328 2.296-2.535 3.936-2.551.69-.005 1.438.362 1.587 1.078.645-.27 1.51-.223 2.099-.068.676.17 1.078.687 1.775.845.55.125 1.103.137 1.622.372.599.272-.079 1.57.228 2.16 1.226 2.358-1.122 4.376-1.941 4.65-1.709.573-2.904 2.203-4.594 2.875-1.286.513-3.03.622-4.43.548l-.008.18c-.024.097-.133.18-.223.089-.557-.533-.557-1.626-.687-2.34-.197-1.071-.212-2.186-.36-3.27-.078-.594-.177-1.174-.143-1.78.062-1.126.57-1.852 1.14-2.788z" fill="#371005"/><path d="M23.808 20.078c-1.141 1.285 1.312 3.164 2.34 3.48.797.241 1.87.034 2.629-.237.517-.18 1.877-1.048 1.29-1.815-.107-.136-.308-.55-.237-.787a15.5 15.5 0 0 0 .377-1.44l.026-.129c.004-.033.016-.074.02-.107.003-.013.01-.022.011-.036.679-.031 1.337-.228 1.902-.658 1.286-.966 1.792-2.165 2.274-3.664.301-.922.52-1.837.58-2.768a2.54 2.54 0 0 0 .021-.436c.005-.057.004-.11.003-.167l-.008-.283a6.98 6.98 0 0 0-.109-.968c-.152-1.208-.66-2.238-1.834-3.012-1.19-.791-3.212-1.274-4.622-.825-.96.311-1.923 1.099-2.408 1.986l-.705 1.316s-.74-.222-1.01.298c-.655 1.267.795 3.674.795 3.674l-.593 3.42-.586 2.949-.03.134c-.048.002-.091.033-.126.075z" class="B"/><path d="M28.217 19.965a4.647 4.647 0 0 0 1.61.756l.381-1.441a.09.09 0 0 0-.024-.012c.009-.001.017-.007.027-.008l.023-.11c.002-.034.012-.073.019-.107-.242-.129-.45-.096-.763-.158a2.825 2.825 0 0 1-1.407-.698c-.299-.285-.885-1.004-1.113-.24-.223.735.729 1.644 1.247 2.018z" fill="#d3ae7f"/><path d="M26.236 6.635c.92-1.028 2.119-1.44 3.48-1.462.8-.017 1.417.344 2.18.508.651.141 1.293.315 1.89.624.544.283 1.51.87 1.704 1.574.054.014.102.046.12.106.184.588-.076 1.066-.764 1.124-1.376.121-1.693-1.882-3.174-1.554-.466.103-.838.479-1.338.547-.467.07-.826-.093-1.275-.221s-.978-.252-1.418-.021c-.844.444-.924 1.52-1.005 2.363-.015.155-.009.332-.157.433-.35.236-.669-.278-.81-.53-.091-.16-.204-.31-.27-.483-.102-.26-.217-.438-.227-.728a2.23 2.23 0 0 1 .157-.847c.197-.532.53-1.013.907-1.433z" fill="#371005"/><path d="M36.612 3.627c-.378-.173-.792-.242-1.216-.256a1.672 1.672 0 0 1-.047-.034c-.17-.468-.488-.776-1.021-1.4C33.348.794 32.069.265 30.597.063c-4.413-.605-8.576 3.232-7.545 7.804.045.2.157.433.27.668l-.115.153a3.761 3.761 0 0 0-.535 1.186c-.138.456-.184.944.104 1.25.078.083.2.11.308.082.011-.003.022-.01.033-.014.055.01.11.003.164-.01.697-.168 1.176-.792 1.763-1.159a19.642 19.642 0 0 1 2.596-1.345c1.592-.689 3.24-1.227 4.896-1.734l2.441-.738c.659-.2 1.512-.332 2.061-.773.783-.628.359-1.446-.426-1.806z" class="D"/><path d="M24.315 7.066a.275.275 0 0 1-.388-.234c-.053-.808.066-2.67 2.108-3.537 1.672-.71 3.192.31 3.83.847a.278.278 0 0 1-.067.466l-5.483 2.458z" fill="#f87690"/><path d="M30.756 21.338s.579-1.002-1.663-1.002-4.278-.917-4.959-1.018-1.208.694-1.208.694l5.904 1.71c.351 0 1.927-.384 1.927-.384z" fill="#fff"/><g fill="#555656"><path d="M47.315 43.525s-1.084 4.39-4.366 5.854-7.56-2.367-7.56-2.367 3.893-5.341 5.2-5.472 6.726 1.985 6.726 1.985z"/><path d="M29.9 21.096s5.049.065 7.694 3.012c1.91 2.13 4.96 10.023 4.96 10.023l-2.968 10.494s-1.992.511-2.422.354-7.265-23.883-7.265-23.883z"/></g><path d="m31.036 119.739-.01-.039c-.27-1.197-.816-5.737-.9-6.957-.042-.599 3.304-1.179 3.36-.034.046.962-.294 5.066-.308 6.027-.011.78.018 1.728-1.018 1.831-.55.053-.992-.325-1.124-.828z" class="B"/><path d="M31.072 118.547c.385-.057.85.12 1.24.17l3.791.687c.718.125 1.809.612 1.805 1.557-.005.968-1.384.852-2.03.866-1.482.034-2.954.007-4.429-.165-1.202-.14-1.1-.883-1.14-1.575-.023-.375.029-.776.197-1.114.138-.276.338-.392.566-.426z" class="C"/><path d="m16.671 119.418-.007-.041c-.213-1.209-.469-5.79-.494-7.012-.013-.6 3.26-.71 3.26.436 0 .964-.51 4.76-.57 5.72-.05.778-.067 1.727-1.107 1.778-.55.027-.975-.372-1.082-.881z" class="B"/><g class="C"><path d="M16.787 118.35c.382-.071.867.021 1.244.124.843.232 1.63.807 2.003 1.122.805.682.935.977.868 1.442-.096.676-.413.884-1.058.922-1.48.089-1.99.008-2.558-.039-.438-.036-.885-.182-1.06-.624-.239-.602-.258-1.907.011-2.5.128-.281.323-.405.55-.447zm19.07-65.34s2.874 5.001 2.948 14.673c.057 7.5-3 47.008-3.181 47.504-.762 2.092-5.919 2.033-6.915-.03-.361-.749-2.956-48.074-2.956-48.074l-.515-12.863s.924-3.287 2.378-3.734 8.24 2.524 8.24 2.524z"/><path d="M16.238 53.322s-3.097 6.512-3.096 17.834c0 8.12.802 41.5.877 42.527.256 3.537 6.774 2.915 7.21.511.258-1.429 6.09-45.905 6.09-45.905l-.066-14.782-11.015-.185z"/></g><path d="M23.181 19.899c5.382 1.537 6.212 1.027 7.148 1.262 2.824.707 4.916 1.964 6.113 5.148 1.584 4.209 1.45 20.164 2.098 24.308l1.301 7.765c.996 5.496-4.813 5.245-12.778 4.72-7.497-.494-13.306 1.676-14.47-1.183-1.465-3.596.83-8.675.879-15.8.068-9.907-.134-20.251 2.05-23.819 1.29-2.104 5.85-2.918 7.66-2.401z" fill="#666"/><g fill="#d2d2d2"><path d="M31.213 35.908L1.439 40.517c-1.182.766-.75 3.5.562 3.72.463.077 29.65-4.341 30.166-4.548 1.757-.704 1.374-4.14-.954-3.781z"/><path d="M31.13 41.297l-30.112-.918c-1.3.537-1.37 3.304-.12 3.76.441.16 29.941 1.16 30.486 1.05 1.855-.37 2.099-3.818-.255-3.892z"/><path d="M30.067 31.321c-.17.078-26.56 12.876-27.063 13.313-.742.646.422 2.767 1.181 2.467.437-.173 26.75-12.99 27.193-13.328.915-.695-.247-2.939-1.31-2.452z"/></g><path d="M19.84 44.316c.742-.098 1.436.267 2.088.57l3.804 1.623.152-.106c.01-.01.014-.023.024-.033.998-.969 4.971-.265 4.503 1.536-.286 1.1-1.999 1.241-2.904 1.15-1.208-.121-2.29-.693-3.47-.929l-2.493-.56c-.649-.142-1.346-.182-1.91-.556-.194-.13-.091-.396.123-.41.273-.018.678.18.934.055.511-.252-.25-.569-.227-.864.003-.03.132-.261.148-.241a.586.586 0 0 1-.123-.262c-.357-.158-.701-.34-.794-.742-.021-.095.042-.218.144-.231z" class="B"/><path d="M23.405 20.413c1.113 1.062-1.406 3.95-3.399 9.257s-2.637 9.256-2.754 9.728 6.797 3.89 8.145 4.952-.498 4.745-2.192 6.09c-.943.749-3.433-1.197-6.773-1.727s-8.873-2.45-8.205-7.37c1.29-9.492 4.495-16.769 6.505-19.043 2.45-2.77 7.56-2.948 8.673-1.887z" fill="#555656"/><path d="M36.036 43.367c.462.399 11.41.84 11.82.251s6.456-18.504 5.76-19.078c-.257-.21-11.523-1.107-12.853-.623-1.226.446-5.237 19.011-4.727 19.45z" fill="#d2d2d2"/><path d="M51.443 35.97c.14-.472.303-1.115-.09-1.436-1.097-.896-1.778 1.442-1.977 2.11a1.46 1.46 0 0 0 .11 1.049.63.63 0 0 0 1.07.089c.364-.485.649-1.01.82-1.595l.067-.218z" class="B"/><path d="M31.265 36.332c.037-.086.11-.171.215-.163a.66.66 0 0 1 .132.023c.01 0 .017-.005.026-.002.435.122.737.512.909.913a2.64 2.64 0 0 1 .036 1.751c-.101.267-.324.428-.609.408-.61-.043-.746-.774-.786-1.263-.049-.58-.16-1.1.077-1.667zm-.156 7.158c.024.288.037 1.52.612 1.273.445-.191.705-.983.707-1.418.004-.45-.055-.978-.313-1.362-.233-.346-.731-.482-.953-.047s-.092 1.083-.053 1.554zm-.543-11.89c.387.101.686.744.802 1.082.173.506-.168 1.103-.622.458-.164-.233-1.115-1.785-.18-1.54z" fill="#aeaeae"/></g></svg>