<svg width="90" height="122" viewBox="0 0 90 122" fill="none" xmlns="http://www.w3.org/2000/svg">
    <path fill-rule="evenodd" clip-rule="evenodd" d="M34.363 20.256s2.483 2.089 3.596 6.62c.88 3.578 2.951 13.236 3.072 13.354.12.117 2.101 2.993 3.004 4.913.904 1.92 3.2 7.866 3.2 7.866l-1.747 1.14s-6.444-7.498-7.89-10.981c-1.05-2.53-2.048-5.698-2.048-5.698l-1.187-17.214z" fill="#E7C59B"/>
    <path fill-rule="evenodd" clip-rule="evenodd" d="M47.903 54.116s2.18.987 2.313 2.424c.132 1.437-.384 1.996-1.426 1.8-1.413-.268-2.646-3.037-2.646-3.037l-2.828-3.966 3.353.228 1.234 2.55z" fill="#E7C59B"/>
    <path fill-rule="evenodd" clip-rule="evenodd" d="m86.08 83.834-37.548 18.627c-2.688 1.334-5.953.243-7.291-2.435L28.913 75.355a5.408 5.408 0 0 1 2.444-7.265l37.549-18.628c2.688-1.333 5.952-.243 7.29 2.436l12.328 24.671a5.409 5.409 0 0 1-2.444 7.265z" fill="#EB5976"/>
    <path fill-rule="evenodd" clip-rule="evenodd" d="M53.21 55.19c-.36 0-.718.083-1.05.248l-5.924 2.939a2.34 2.34 0 0 0-1.187 1.358 2.33 2.33 0 0 0 .125 1.796l.4.8 10.152-5.036-.4-.8a2.344 2.344 0 0 0-1.363-1.182 2.375 2.375 0 0 0-.753-.123zm-8.286 9.072-1.044-2.09a3.755 3.755 0 0 1-.201-2.894 3.773 3.773 0 0 1 1.913-2.19l5.924-2.94a3.796 3.796 0 0 1 2.906-.2 3.777 3.777 0 0 1 2.198 1.905l1.044 2.09-12.74 6.32z" fill="#EB5976"/>
    <path fill-rule="evenodd" clip-rule="evenodd" d="M34.784 10.115c-.107-1.075-.265-2.112-.27-3.192-.01-1.123.15-2.467-.285-3.528-.462-1.128-1.801-2.204-3.06-2.175a.722.722 0 0 0-.25-.322C30.4.5 29.672.313 29.045.183c-1.305-.259-2.74-.292-3.99.226-2.547 1.06-3.646 3.288-4.277 5.75-.29.688-.68 1.264-1.075 1.888-.674 1.07-1.532 1.987-2.235 3.038-.709 1.061-1.378 2.477-1.624 3.903-1.296 1.72-2.51 3.39-2.587 5.708-.067 1.997.968 4.114 3.112 4.407 1.142.158 2.515.033 3.57-.456.704-.322 1.421-.725 2.178-.917.771-.192 1.628.034 2.404.096 2.274.173 4.24-.46 5.748-2.012.024.13.222.178.323.092.761-.61 1.325-1.604 1.749-2.453.486-.975 1.06-1.954 1.474-2.957.834-1.998 1.18-4.23.969-6.38z" fill="#222"/>
    <path fill-rule="evenodd" clip-rule="evenodd" d="M3.318 117.185a1.17 1.17 0 0 1 .01-.04c.331-1.206 2.023-5.545 2.534-6.68.251-.558 3.564.539 3.063 1.592-.422.886-2.707 4.405-3.182 5.262-.385.695-.817 1.56-1.805 1.151-.524-.217-.742-.77-.62-1.285z" fill="#E7C59B"/>
    <path fill-rule="evenodd" clip-rule="evenodd" d="M3.93 116.134c.376.134.713.518 1.041.751 1.087.772 2.056 1.63 3.106 2.446.59.461 1.344 1.425.885 2.269-.47.867-1.663.098-2.256-.201-1.36-.686-2.682-1.42-3.935-2.286-1.023-.707-.571-1.324-.275-1.966.16-.347.4-.682.716-.904.257-.181.495-.189.718-.109zM27.924 72.57c-.443-.239-1.764 11.522-4.538 18.363-1.855 4.574-9.331 24.266-10.265 24.603-2.041.736-10.118-1.2-12.045-5.881-.558-1.355 7.735-21.242 8.7-23.643.963-2.4 4.709-24.722 4.709-24.722s6.353-4.321 7.808-3.6c1.454.719 7.387 6.24 7.372 6.96-.016.72-1.74 7.92-1.74 7.92z" fill="#191919"/>
    <path fill-rule="evenodd" clip-rule="evenodd" d="M33.323 10.96c-.284 1.58-.631 2.857-1.806 4.009-.521.514-1.162.801-1.846.926 0 .015-.01.024-.01.039 0 .034-.005.077-.005.11a.88.88 0 0 1-.01.116c.006.01 0 .014 0 .019a15.14 15.14 0 0 1-.182 1.502c-.039.25.222.639.352.764.703.69-.564 1.757-1.065 2.01-.737.375-1.797.735-2.645.601-1.089-.173-3.85-1.728-2.862-3.183.029-.048.067-.086.116-.096 0-.048.01-.086.014-.14.049-1.017.13-2.03.188-3.052.067-1.262.13-3.533.13-3.533s-1.807-2.228-1.315-3.59c.202-.568.987-.442.987-.442.169-.48.348-.956.535-1.426.371-.96 1.243-1.892 2.178-2.339 1.373-.648 3.498-.441 4.818.192 1.306.62 1.966 1.59 2.284 2.785.1.308.187.62.24.926 0 .01.006.024.006.034.019.096.038.187.048.283.01.058.019.11.019.168.01.038.014.077.014.116.02.11.024.22.024.33.068.947-.029 1.902-.207 2.872z" fill="#E7C59B"/>
    <path fill-rule="evenodd" clip-rule="evenodd" d="M27.717 17.148c.523.274 1.133.48 1.745.537.083-.496.152-.995.188-1.505a.113.113 0 0 0-.027-.009c.01-.002.018-.008.027-.01 0-.04.007-.077.008-.116-.003-.034.003-.075.005-.11-.265-.097-.473-.035-.799-.054a2.927 2.927 0 0 1-1.53-.508c-.343-.246-1.04-.89-1.167-.088-.124.772.97 1.556 1.55 1.863z" fill="#D3AE7F"/>
    <path fill-rule="evenodd" clip-rule="evenodd" d="m43.441 118.564-.019-.037c-.552-1.122-2.161-5.492-2.532-6.68-.181-.584 3.03-1.945 3.354-.824.272.942.893 5.088 1.105 6.044.172.775.423 1.708-.59 2.052-.537.183-1.069-.088-1.318-.555z" fill="#E7C59B"/>
    <path fill-rule="evenodd" clip-rule="evenodd" d="M43.2 117.373c.371-.147.88-.081 1.28-.123 1.327-.137 2.624-.131 3.953-.211.748-.043 1.954.183 2.17 1.119.222.961-1.183 1.17-1.826 1.336-1.476.381-2.955.701-4.47.877-1.236.143-1.306-.617-1.51-1.294-.11-.366-.153-.775-.063-1.15.073-.305.245-.467.466-.554zM32.63 51.323s3.844.166 6.388 13.844c1.396 7.507 8.012 47.275 7.947 47.808-.271 2.253-10.093 4.297-11.573 2.487-.538-.657-10.971-47.811-10.971-47.811l-2.129-12.635s.154-3.473 1.503-4.257c1.349-.785 8.835.564 8.835.564z" fill="#191919"/>
    <path fill-rule="evenodd" clip-rule="evenodd" d="M23.362 17.779s1.264.9 3.582.81c2.318-.09 2.585-.58 2.585-.58s3.69.844 5.058 2.476c1.686 2.01 2.138 7.89 2.168 10.02.063 4.485.002 9.572.182 12.883.18 3.312 1.625 8.84 2.227 12.38.602 3.542 2.108 5.162-2.71 5.882-4.818.72-4.456-.96-9.034.36-4.577 1.32-7.468 1.5-10.298 1.26s-5.701-1.54-5.936-3.22c-.684-4.9 3.275-15.805 2.974-19.48-.3-3.676.455-16.445 2.52-19.485 1.649-2.427 6.682-3.306 6.682-3.306z" fill="#666"/>
    <path fill-rule="evenodd" clip-rule="evenodd" d="M33.6 5.58a1.177 1.177 0 0 0-.063-.27c.13-.705-.631-1.29-1.079-1.743-.275-.273-.713-.47-1.065-.614-.274-.11-.477-.259-.727-.206-.28-.164-.477-.452-.82-.572-.89-.312-2.346-.273-3.203.106a7.194 7.194 0 0 0-2.477 1.844c-.491.575-.829.97-1.518 1.325-.245.125-.601.21-.751.46-.053.092.005.192.097.221 1.175 1.66 3.145.634 4.528-.269 1.041-.682 2.245-.797 3.267-1.488.352-.24.612-.442.766-.73.096.351.747.701.973.826.342.187.723.293 1.065.475.366.192.486.47.674.821a.18.18 0 0 0 .16.091c.168-.009.182-.13.173-.278z" fill="#222"/>
    <path fill-rule="evenodd" clip-rule="evenodd" d="M30.069 26.25c-.184.056-29.06 8.677-29.574 9.126-1.087.95-.237 3.638 1.13 3.66.482.008 29.489-8.838 29.982-9.123 1.68-.974.774-4.375-1.538-3.663z" fill="#D2D2D2"/>
    <path fill-rule="evenodd" clip-rule="evenodd" d="M30.186 26.67c.023-.093.085-.19.192-.198a.683.683 0 0 1 .139.004c.01 0 .016-.008.025-.006.461.057.827.404 1.062.783.286.46.418 1.224.3 1.757-.063.283-.265.48-.558.502-.627.049-.875-.666-.99-1.153-.136-.578-.327-1.083-.17-1.69z" fill="#AEAEAE"/>
    <path fill-rule="evenodd" clip-rule="evenodd" d="M31.937 35.835c-.19-.028-29.994-4.542-30.65-4.356-1.39.396-1.776 3.188-.55 3.79.433.214 30.449 4.58 31.018 4.532 1.936-.163 2.577-3.624.182-3.966z" fill="#D2D2D2"/>
    <path fill-rule="evenodd" clip-rule="evenodd" d="M31.669 38.05c-.01.295-.135 1.543.48 1.358.476-.143.831-.914.884-1.354.054-.455.054-.996-.166-1.414-.199-.377-.692-.57-.968-.155-.277.418-.217 1.085-.23 1.566z" fill="#AEAEAE"/>
    <path fill-rule="evenodd" clip-rule="evenodd" d="M32.173 30.9c-.186.048-29.187 8.108-29.774 8.455-.867.513-.07 2.848.75 2.684.473-.094 29.4-8.188 29.909-8.446 1.05-.532.28-2.99-.885-2.693z" fill="#D2D2D2"/>
    <path fill-rule="evenodd" clip-rule="evenodd" d="M32.625 31.268c.374.172.56.87.616 1.23.085.538-.369 1.075-.712.346-.124-.263-.807-1.99.096-1.576z" fill="#AEAEAE"/>
    <path fill-rule="evenodd" clip-rule="evenodd" d="M19.275 19.916c2.576.54 1.857 3.329.952 8.13-.906 4.8-2.211 9.712-2.211 9.712s1.325.309 3.854.849c2.53.54 7.792 1.963 7.792 1.963l-.322 2.478s-11.284.2-13.512-.347c-2.228-.548-2.951-2.294-2.65-5.5.201-2.132 1.586-10.996 1.927-12.456.341-1.46 1.595-5.37 4.17-4.83z" fill="#E7C59B"/>
    <path fill-rule="evenodd" clip-rule="evenodd" d="M23.803 40.078c.723-.266 5.862.492 5.862.492l.686.169s4.339-1.341 4.86.502c.52 1.842-1.792 2.131-2.727 2.146-1.46.023-1.906-.374-3.142-.34-.878.025-2.216-.137-3.093-.13-.684.007-1.39.125-2.04-.118-.224-.084-.182-.372.03-.435.268-.08.72.026.947-.157.456-.366-.378-.508-.422-.806-.005-.03.072-.29.093-.273a.6.6 0 0 1-.183-.232c-.392-.075-.779-.18-.963-.557-.043-.088-.008-.225.093-.261z" fill="#E7C59B"/>
</svg>
